<svg width="22" height="21" viewBox="0 0 22 21" fill="none" xmlns="http://www.w3.org/2000/svg">
<path d="M7.91753 10.2112L0.3452 2.98303C-0.115067 2.54364 -0.115067 1.83136 0.3452 1.39203L1.4583 0.32953C1.91783 -0.10913 2.66252 -0.109924 3.12309 0.327637L10.7222 7.54736L18.3213 0.327637C18.7819 -0.109924 19.5266 -0.10913 19.9861 0.32953L21.0992 1.39203C21.5595 1.83136 21.5595 2.5437 21.0992 2.98303L13.527 10.2112L21.0992 17.4393C21.5595 17.8787 21.5595 18.591 21.0992 19.0303L19.9861 20.0928C19.5266 20.5315 18.7819 20.5323 18.3213 20.0947L10.7222 12.875L3.12309 20.0947C2.66252 20.5323 1.91783 20.5315 1.4583 20.0928L0.3452 19.0303C-0.115067 18.591 -0.115067 17.8787 0.3452 17.4393L7.91753 10.2112Z" fill="#A9A9A9"/>
</svg>
